<svg width="214" height="59" viewBox="0 0 214 59" fill="none" xmlns="http://www.w3.org/2000/svg">
<path d="M13.4176 0.90909V30H8.14773V6.03693H7.97727L1.1733 10.3835V5.55398L8.40341 0.90909H13.4176ZM31.1449 30.3977C29.0331 30.3977 27.1581 30.0426 25.5199 29.3324C23.8911 28.6222 22.6127 27.6515 21.6847 26.4205C20.7661 25.1799 20.3116 23.7737 20.321 22.2017C20.3116 20.9801 20.5767 19.858 21.1165 18.8352C21.6563 17.8125 22.3854 16.9602 23.304 16.2784C24.232 15.5871 25.2642 15.1468 26.4006 14.9574V14.7585C24.9044 14.4271 23.6922 13.6648 22.7642 12.4716C21.8456 11.2689 21.3911 9.88163 21.4006 8.30966C21.3911 6.81345 21.8078 5.47822 22.6506 4.30398C23.4934 3.12973 24.6487 2.20644 26.1165 1.53409C27.5843 0.852272 29.2604 0.511363 31.1449 0.511363C33.0104 0.511363 34.6723 0.852272 36.1307 1.53409C37.5985 2.20644 38.7538 3.12973 39.5966 4.30398C40.4489 5.47822 40.875 6.81345 40.875 8.30966C40.875 9.88163 40.4062 11.2689 39.4688 12.4716C38.5407 13.6648 37.3428 14.4271 35.875 14.7585V14.9574C37.0114 15.1468 38.0341 15.5871 38.9432 16.2784C39.8617 16.9602 40.5909 17.8125 41.1307 18.8352C41.6799 19.858 41.9545 20.9801 41.9545 22.2017C41.9545 23.7737 41.4905 25.1799 40.5625 26.4205C39.6345 27.6515 38.3561 28.6222 36.7273 29.3324C35.108 30.0426 33.2472 30.3977 31.1449 30.3977ZM31.1449 26.3352C32.2339 26.3352 33.1809 26.1506 33.9858 25.7812C34.7907 25.4025 35.4157 24.8722 35.8608 24.1903C36.3059 23.5085 36.5331 22.7225 36.5426 21.8324C36.5331 20.9044 36.2917 20.0852 35.8182 19.375C35.3542 18.6553 34.715 18.0919 33.9006 17.6847C33.0956 17.2775 32.1771 17.0739 31.1449 17.0739C30.1032 17.0739 29.1752 17.2775 28.3608 17.6847C27.5464 18.0919 26.9025 18.6553 26.429 19.375C25.965 20.0852 25.7377 20.9044 25.7472 21.8324C25.7377 22.7225 25.9555 23.5085 26.4006 24.1903C26.8456 24.8627 27.4706 25.3883 28.2756 25.767C29.09 26.1458 30.0464 26.3352 31.1449 26.3352ZM31.1449 13.0824C32.035 13.0824 32.821 12.9025 33.5028 12.5426C34.1941 12.1828 34.7386 11.6809 35.1364 11.0369C35.5341 10.393 35.7377 9.64962 35.7472 8.80682C35.7377 7.97348 35.5388 7.24432 35.1506 6.61932C34.7623 5.98485 34.2225 5.49716 33.5312 5.15625C32.84 4.80587 32.0445 4.63068 31.1449 4.63068C30.2263 4.63068 29.4167 4.80587 28.7159 5.15625C28.0246 5.49716 27.4848 5.98485 27.0966 6.61932C26.7178 7.24432 26.5331 7.97348 26.5426 8.80682C26.5331 9.64962 26.7225 10.393 27.1108 11.0369C27.5085 11.6714 28.053 12.1733 28.7443 12.5426C29.4451 12.9025 30.2453 13.0824 31.1449 13.0824ZM57.3771 30.554C55.0381 30.554 53.0305 29.9621 51.3544 28.7784C49.6877 27.5852 48.4046 25.8665 47.505 23.6222C46.6148 21.3684 46.1697 18.6553 46.1697 15.483C46.1792 12.3106 46.629 9.61174 47.5192 7.38636C48.4188 5.15151 49.7019 3.44697 51.3686 2.27273C53.0447 1.09848 55.0476 0.511363 57.3771 0.511363C59.7067 0.511363 61.7095 1.09848 63.3857 2.27273C65.0618 3.44697 66.3449 5.15151 67.2351 7.38636C68.1347 9.62121 68.5845 12.3201 68.5845 15.483C68.5845 18.6648 68.1347 21.3826 67.2351 23.6364C66.3449 25.8807 65.0618 27.5947 63.3857 28.7784C61.719 29.9621 59.7161 30.554 57.3771 30.554ZM57.3771 26.108C59.1953 26.108 60.63 25.2131 61.6811 23.4233C62.7417 21.6241 63.272 18.9773 63.272 15.483C63.272 13.1723 63.0305 11.2311 62.5476 9.65909C62.0646 8.08712 61.3828 6.90341 60.5021 6.10795C59.6214 5.30303 58.5798 4.90057 57.3771 4.90057C55.5684 4.90057 54.1385 5.80019 53.0874 7.59943C52.0362 9.3892 51.5059 12.017 51.4964 15.483C51.487 17.803 51.719 19.7538 52.1925 21.3352C52.6754 22.9167 53.3572 24.1098 54.2379 24.9148C55.1186 25.7102 56.165 26.108 57.3771 26.108ZM3.74432 58.2557C3.05303 58.2557 2.42566 58.1255 1.86222 57.8651C1.29877 57.5999 0.851326 57.2188 0.519886 56.7216C0.188447 56.2197 0.0227273 55.6136 0.0227273 54.9034C0.0227273 54.2784 0.145833 53.7718 0.392045 53.3835C0.638258 52.9905 0.96733 52.6828 1.37926 52.4602C1.79119 52.2377 2.24574 52.072 2.7429 51.9631C3.24479 51.8494 3.74905 51.7595 4.25568 51.6932C4.91856 51.608 5.45597 51.544 5.8679 51.5014C6.28456 51.4541 6.58759 51.3759 6.77699 51.267C6.97112 51.1581 7.06818 50.9687 7.06818 50.6989V50.642C7.06818 49.9413 6.87642 49.3968 6.4929 49.0085C6.11411 48.6203 5.53883 48.4261 4.76705 48.4261C3.96686 48.4261 3.33949 48.6013 2.88494 48.9517C2.4304 49.3021 2.1108 49.6761 1.92614 50.0739L0.335227 49.5057C0.619318 48.8428 0.998106 48.3267 1.47159 47.9574C1.94981 47.5833 2.47064 47.3229 3.03409 47.1761C3.60227 47.0246 4.16098 46.9489 4.71023 46.9489C5.06061 46.9489 5.46307 46.9915 5.91761 47.0767C6.37689 47.1572 6.8196 47.3253 7.24574 47.581C7.67661 47.8366 8.03409 48.2225 8.31818 48.7386C8.60227 49.2547 8.74432 49.946 8.74432 50.8125V58H7.06818V56.5227H6.98295C6.86932 56.7595 6.67992 57.0128 6.41477 57.2827C6.14962 57.5526 5.79688 57.7822 5.35653 57.9716C4.91619 58.161 4.37879 58.2557 3.74432 58.2557ZM4 56.75C4.66288 56.75 5.22159 56.6198 5.67614 56.3594C6.13542 56.099 6.48106 55.7628 6.71307 55.3509C6.94981 54.9389 7.06818 54.5057 7.06818 54.0511V52.517C6.99716 52.6023 6.84091 52.6804 6.59943 52.7514C6.36269 52.8177 6.08807 52.8769 5.77557 52.929C5.4678 52.9763 5.16714 53.0189 4.87358 53.0568C4.58475 53.09 4.35038 53.1184 4.17045 53.142C3.73485 53.1989 3.32765 53.2912 2.94886 53.419C2.57481 53.5421 2.27178 53.7292 2.03977 53.9801C1.8125 54.2263 1.69886 54.5625 1.69886 54.9886C1.69886 55.571 1.9143 56.0114 2.34517 56.3097C2.78078 56.6032 3.33239 56.75 4 56.75ZM11.8036 58V47.0909H13.4229V48.7955H13.565C13.7923 48.2131 14.1592 47.7609 14.6658 47.4389C15.1725 47.1122 15.7809 46.9489 16.4911 46.9489C17.2108 46.9489 17.8098 47.1122 18.288 47.4389C18.771 47.7609 19.1474 48.2131 19.4173 48.7955H19.5309C19.8103 48.232 20.2293 47.7846 20.788 47.4531C21.3467 47.117 22.0167 46.9489 22.7979 46.9489C23.7733 46.9489 24.5711 47.2543 25.1914 47.8651C25.8117 48.4711 26.1218 49.4157 26.1218 50.6989V58H24.4457V50.6989C24.4457 49.8939 24.2255 49.3187 23.7852 48.973C23.3448 48.6274 22.8263 48.4545 22.2298 48.4545C21.4627 48.4545 20.8685 48.6866 20.4471 49.1506C20.0257 49.6098 19.815 50.1922 19.815 50.8977V58H18.1104V50.5284C18.1104 49.9081 17.9092 49.4086 17.5067 49.0298C17.1043 48.6463 16.5858 48.4545 15.9513 48.4545C15.5157 48.4545 15.1085 48.5705 14.7298 48.8026C14.3557 49.0346 14.0527 49.3565 13.8207 49.7685C13.5934 50.1757 13.4798 50.6468 13.4798 51.1818V58H11.8036ZM29.4137 58V43.4545H31.0898V48.8239H31.2319C31.355 48.6345 31.5254 48.393 31.7433 48.0994C31.9658 47.8011 32.283 47.536 32.695 47.304C33.1116 47.0672 33.6751 46.9489 34.3853 46.9489C35.3039 46.9489 36.1135 47.1785 36.8143 47.6378C37.515 48.0971 38.0619 48.7481 38.4549 49.5909C38.8479 50.4337 39.0444 51.428 39.0444 52.5739C39.0444 53.7292 38.8479 54.7306 38.4549 55.5781C38.0619 56.4209 37.5174 57.0743 36.8214 57.5384C36.1254 57.9976 35.3228 58.2273 34.4137 58.2273C33.7129 58.2273 33.1519 58.1113 32.7305 57.8793C32.3091 57.6425 31.9847 57.375 31.7575 57.0767C31.5302 56.7737 31.355 56.5227 31.2319 56.3239H31.033V58H29.4137ZM31.0614 52.5455C31.0614 53.3693 31.1822 54.0961 31.4237 54.7259C31.6651 55.3509 32.0179 55.8409 32.4819 56.196C32.9459 56.5464 33.5141 56.7216 34.1864 56.7216C34.8872 56.7216 35.4719 56.5369 35.9407 56.1676C36.4142 55.7936 36.7693 55.2917 37.006 54.6619C37.2475 54.0275 37.3683 53.322 37.3683 52.5455C37.3683 51.7784 37.2499 51.0871 37.0131 50.4716C36.7811 49.8513 36.4284 49.3613 35.9549 49.0014C35.4862 48.6368 34.8967 48.4545 34.1864 48.4545C33.5046 48.4545 32.9317 48.6274 32.4677 48.973C32.0037 49.3139 31.6533 49.7921 31.4165 50.4077C31.1798 51.0185 31.0614 51.7311 31.0614 52.5455ZM41.6083 58V47.0909H43.2844V58H41.6083ZM42.4606 45.2727C42.1339 45.2727 41.8522 45.1615 41.6154 44.9389C41.3834 44.7164 41.2674 44.4489 41.2674 44.1364C41.2674 43.8239 41.3834 43.5563 41.6154 43.3338C41.8522 43.1113 42.1339 43 42.4606 43C42.7873 43 43.0666 43.1113 43.2987 43.3338C43.5354 43.5563 43.6538 43.8239 43.6538 44.1364C43.6538 44.4489 43.5354 44.7164 43.2987 44.9389C43.0666 45.1615 42.7873 45.2727 42.4606 45.2727ZM50.9283 58.2273C49.8771 58.2273 48.9704 57.9953 48.2081 57.5312C47.4505 57.0625 46.8658 56.4091 46.4538 55.571C46.0466 54.7282 45.843 53.7481 45.843 52.6307C45.843 51.5133 46.0466 50.5284 46.4538 49.6761C46.8658 48.8191 47.4387 48.1515 48.1726 47.6733C48.9112 47.1903 49.773 46.9489 50.7578 46.9489C51.326 46.9489 51.8871 47.0436 52.4411 47.233C52.995 47.4223 53.4993 47.7301 53.9538 48.1562C54.4084 48.5777 54.7706 49.1364 55.0405 49.8324C55.3104 50.5284 55.4453 51.3854 55.4453 52.4034V53.1136H47.0362V51.6648H53.7408C53.7408 51.0492 53.6177 50.5 53.3714 50.017C53.13 49.5341 52.7843 49.1529 52.3345 48.8736C51.8894 48.5942 51.3639 48.4545 50.7578 48.4545C50.0902 48.4545 49.5125 48.6203 49.0249 48.9517C48.5419 49.2784 48.1702 49.7045 47.9098 50.2301C47.6494 50.7557 47.5192 51.3191 47.5192 51.9205V52.8864C47.5192 53.7102 47.6612 54.4086 47.9453 54.9815C48.2341 55.5497 48.6342 55.983 49.1456 56.2812C49.657 56.5748 50.2512 56.7216 50.9283 56.7216C51.3686 56.7216 51.7663 56.66 52.1214 56.5369C52.4813 56.4091 52.7914 56.2197 53.0518 55.9688C53.3123 55.7131 53.5135 55.3958 53.6555 55.017L55.2749 55.4716C55.1044 56.0208 54.8179 56.5038 54.4155 56.9205C54.013 57.3324 53.5159 57.6544 52.924 57.8864C52.3321 58.1136 51.6669 58.2273 50.9283 58.2273ZM59.6712 51.4375V58H57.995V47.0909H59.6143V48.7955H59.7564C60.0121 48.2415 60.4003 47.7964 60.9212 47.4602C61.442 47.1193 62.1143 46.9489 62.9382 46.9489C63.6768 46.9489 64.3232 47.1004 64.8771 47.4034C65.4311 47.7017 65.862 48.1562 66.1697 48.767C66.4775 49.3731 66.6314 50.1402 66.6314 51.0682V58H64.9553V51.1818C64.9553 50.3248 64.7327 49.6572 64.2876 49.179C63.8426 48.696 63.2318 48.4545 62.4553 48.4545C61.9202 48.4545 61.442 48.5705 61.0206 48.8026C60.6039 49.0346 60.2749 49.3731 60.0334 49.8182C59.7919 50.2633 59.6712 50.803 59.6712 51.4375ZM74.4386 47.0909V48.5114H68.7852V47.0909H74.4386ZM70.4329 44.4773H72.109V54.875C72.109 55.3485 72.1777 55.7036 72.315 55.9403C72.457 56.1723 72.637 56.3286 72.8548 56.4091C73.0773 56.4848 73.3117 56.5227 73.5579 56.5227C73.7425 56.5227 73.8941 56.5133 74.0124 56.4943C74.1308 56.4706 74.2255 56.4517 74.2965 56.4375L74.6374 57.9432C74.5238 57.9858 74.3652 58.0284 74.1616 58.071C73.958 58.1184 73.6999 58.142 73.3874 58.142C72.9139 58.142 72.4499 58.0402 71.9954 57.8366C71.5456 57.633 71.1715 57.3229 70.8732 56.9062C70.5797 56.4896 70.4329 55.964 70.4329 55.3295V44.4773ZM81.4165 58.2273C80.3654 58.2273 79.4587 57.9953 78.6964 57.5312C77.9388 57.0625 77.354 56.4091 76.9421 55.571C76.5349 54.7282 76.3313 53.7481 76.3313 52.6307C76.3313 51.5133 76.5349 50.5284 76.9421 49.6761C77.354 48.8191 77.927 48.1515 78.6609 47.6733C79.3995 47.1903 80.2612 46.9489 81.2461 46.9489C81.8143 46.9489 82.3754 47.0436 82.9293 47.233C83.4833 47.4223 83.9876 47.7301 84.4421 48.1562C84.8967 48.5777 85.2589 49.1364 85.5288 49.8324C85.7987 50.5284 85.9336 51.3854 85.9336 52.4034V53.1136H77.5245V51.6648H84.229C84.229 51.0492 84.1059 50.5 83.8597 50.017C83.6183 49.5341 83.2726 49.1529 82.8228 48.8736C82.3777 48.5942 81.8522 48.4545 81.2461 48.4545C80.5785 48.4545 80.0008 48.6203 79.5131 48.9517C79.0302 49.2784 78.6585 49.7045 78.3981 50.2301C78.1377 50.7557 78.0075 51.3191 78.0075 51.9205V52.8864C78.0075 53.7102 78.1495 54.4086 78.4336 54.9815C78.7224 55.5497 79.1225 55.983 79.6339 56.2812C80.1452 56.5748 80.7395 56.7216 81.4165 56.7216C81.8569 56.7216 82.2546 56.66 82.6097 56.5369C82.9696 56.4091 83.2797 56.2197 83.5401 55.9688C83.8005 55.7131 84.0018 55.3958 84.1438 55.017L85.7631 55.4716C85.5927 56.0208 85.3062 56.5038 84.9038 56.9205C84.5013 57.3324 84.0041 57.6544 83.4123 57.8864C82.8204 58.1136 82.1552 58.2273 81.4165 58.2273ZM96.2106 49.5341L94.7049 49.9602C94.6102 49.7093 94.4705 49.4654 94.2859 49.2287C94.1059 48.9872 93.8597 48.7884 93.5472 48.6321C93.2347 48.4759 92.8346 48.3977 92.3469 48.3977C91.6793 48.3977 91.123 48.5516 90.6779 48.8594C90.2376 49.1624 90.0174 49.5483 90.0174 50.017C90.0174 50.4337 90.1689 50.7628 90.4719 51.0043C90.775 51.2457 91.2485 51.447 91.8924 51.608L93.5117 52.0057C94.4871 52.2424 95.2139 52.6046 95.6921 53.0923C96.1703 53.5753 96.4094 54.1979 96.4094 54.9602C96.4094 55.5852 96.2295 56.1439 95.8697 56.6364C95.5146 57.1288 95.0174 57.517 94.3782 57.8011C93.739 58.0852 92.9956 58.2273 92.1481 58.2273C91.0354 58.2273 90.1145 57.9858 89.3853 57.5028C88.6561 57.0199 88.1945 56.3144 88.0004 55.3864L89.5913 54.9886C89.7428 55.5758 90.0292 56.0161 90.4506 56.3097C90.8768 56.6032 91.4331 56.75 92.1197 56.75C92.9009 56.75 93.5212 56.5843 93.9805 56.2528C94.4445 55.9167 94.6765 55.5142 94.6765 55.0455C94.6765 54.6667 94.5439 54.3494 94.2788 54.0938C94.0136 53.8333 93.6064 53.6392 93.0572 53.5114L91.239 53.0852C90.2399 52.8485 89.506 52.4815 89.0373 51.9844C88.5733 51.4825 88.3413 50.8551 88.3413 50.1023C88.3413 49.4867 88.5141 48.9422 88.8597 48.4688C89.2101 47.9953 89.686 47.6236 90.2873 47.3537C90.8933 47.0838 91.5799 46.9489 92.3469 46.9489C93.4265 46.9489 94.274 47.1856 94.8896 47.6591C95.5098 48.1326 95.9502 48.7576 96.2106 49.5341ZM108.989 58.2273C107.967 58.2273 107.086 57.9858 106.347 57.5028C105.609 57.0199 105.04 56.3546 104.643 55.5071C104.245 54.6596 104.046 53.6913 104.046 52.6023C104.046 51.4943 104.25 50.5166 104.657 49.669C105.069 48.8168 105.642 48.1515 106.376 47.6733C107.114 47.1903 107.976 46.9489 108.961 46.9489C109.728 46.9489 110.419 47.0909 111.035 47.375C111.65 47.6591 112.155 48.0568 112.548 48.5682C112.941 49.0795 113.184 49.6761 113.279 50.358H111.603C111.475 49.8608 111.191 49.4205 110.751 49.0369C110.315 48.6487 109.728 48.4545 108.989 48.4545C108.336 48.4545 107.763 48.625 107.271 48.9659C106.783 49.3021 106.402 49.7779 106.127 50.3935C105.857 51.0043 105.722 51.7216 105.722 52.5455C105.722 53.3883 105.855 54.1222 106.12 54.7472C106.39 55.3722 106.769 55.8575 107.256 56.2031C107.749 56.5488 108.326 56.7216 108.989 56.7216C109.425 56.7216 109.82 56.6458 110.175 56.4943C110.531 56.3428 110.831 56.125 111.077 55.8409C111.324 55.5568 111.499 55.2159 111.603 54.8182H113.279C113.184 55.4621 112.95 56.0421 112.576 56.5582C112.207 57.0696 111.717 57.4768 111.106 57.7798C110.5 58.0781 109.794 58.2273 108.989 58.2273ZM120.161 58.2273C119.176 58.2273 118.312 57.9929 117.569 57.5241C116.83 57.0554 116.253 56.3996 115.836 55.5568C115.424 54.714 115.218 53.7292 115.218 52.6023C115.218 51.4659 115.424 50.474 115.836 49.6264C116.253 48.7789 116.83 48.1207 117.569 47.652C118.312 47.1832 119.176 46.9489 120.161 46.9489C121.146 46.9489 122.008 47.1832 122.746 47.652C123.49 48.1207 124.067 48.7789 124.479 49.6264C124.896 50.474 125.104 51.4659 125.104 52.6023C125.104 53.7292 124.896 54.714 124.479 55.5568C124.067 56.3996 123.49 57.0554 122.746 57.5241C122.008 57.9929 121.146 58.2273 120.161 58.2273ZM120.161 56.7216C120.909 56.7216 121.525 56.5298 122.008 56.1463C122.491 55.7628 122.848 55.2585 123.08 54.6335C123.312 54.0085 123.428 53.3314 123.428 52.6023C123.428 51.8731 123.312 51.1937 123.08 50.5639C122.848 49.9342 122.491 49.4252 122.008 49.0369C121.525 48.6487 120.909 48.4545 120.161 48.4545C119.413 48.4545 118.798 48.6487 118.315 49.0369C117.832 49.4252 117.474 49.9342 117.242 50.5639C117.01 51.1937 116.894 51.8731 116.894 52.6023C116.894 53.3314 117.01 54.0085 117.242 54.6335C117.474 55.2585 117.832 55.7628 118.315 56.1463C118.798 56.5298 119.413 56.7216 120.161 56.7216ZM129.339 51.4375V58H127.663V47.0909H129.282V48.7955H129.424C129.68 48.2415 130.068 47.7964 130.589 47.4602C131.11 47.1193 131.782 46.9489 132.606 46.9489C133.345 46.9489 133.991 47.1004 134.545 47.4034C135.099 47.7017 135.53 48.1562 135.838 48.767C136.145 49.3731 136.299 50.1402 136.299 51.0682V58H134.623V51.1818C134.623 50.3248 134.401 49.6572 133.956 49.179C133.511 48.696 132.9 48.4545 132.123 48.4545C131.588 48.4545 131.11 48.5705 130.689 48.8026C130.272 49.0346 129.943 49.3731 129.701 49.8182C129.46 50.2633 129.339 50.803 129.339 51.4375ZM147.089 49.5341L145.584 49.9602C145.489 49.7093 145.349 49.4654 145.165 49.2287C144.985 48.9872 144.739 48.7884 144.426 48.6321C144.114 48.4759 143.714 48.3977 143.226 48.3977C142.558 48.3977 142.002 48.5516 141.557 48.8594C141.116 49.1624 140.896 49.5483 140.896 50.017C140.896 50.4337 141.048 50.7628 141.351 51.0043C141.654 51.2457 142.127 51.447 142.771 51.608L144.391 52.0057C145.366 52.2424 146.093 52.6046 146.571 53.0923C147.049 53.5753 147.288 54.1979 147.288 54.9602C147.288 55.5852 147.108 56.1439 146.749 56.6364C146.393 57.1288 145.896 57.517 145.257 57.8011C144.618 58.0852 143.875 58.2273 143.027 58.2273C141.914 58.2273 140.993 57.9858 140.264 57.5028C139.535 57.0199 139.073 56.3144 138.879 55.3864L140.47 54.9886C140.622 55.5758 140.908 56.0161 141.33 56.3097C141.756 56.6032 142.312 56.75 142.999 56.75C143.78 56.75 144.4 56.5843 144.859 56.2528C145.323 55.9167 145.555 55.5142 145.555 55.0455C145.555 54.6667 145.423 54.3494 145.158 54.0938C144.893 53.8333 144.485 53.6392 143.936 53.5114L142.118 53.0852C141.119 52.8485 140.385 52.4815 139.916 51.9844C139.452 51.4825 139.22 50.8551 139.22 50.1023C139.22 49.4867 139.393 48.9422 139.739 48.4688C140.089 47.9953 140.565 47.6236 141.166 47.3537C141.772 47.0838 142.459 46.9489 143.226 46.9489C144.305 46.9489 145.153 47.1856 145.768 47.6591C146.389 48.1326 146.829 48.7576 147.089 49.5341ZM154.556 47.0909V48.5114H148.902V47.0909H154.556ZM150.55 44.4773H152.226V54.875C152.226 55.3485 152.295 55.7036 152.432 55.9403C152.574 56.1723 152.754 56.3286 152.972 56.4091C153.194 56.4848 153.429 56.5227 153.675 56.5227C153.86 56.5227 154.011 56.5133 154.13 56.4943C154.248 56.4706 154.343 56.4517 154.414 56.4375L154.755 57.9432C154.641 57.9858 154.482 58.0284 154.279 58.071C154.075 58.1184 153.817 58.142 153.505 58.142C153.031 58.142 152.567 58.0402 152.113 57.8366C151.663 57.633 151.289 57.3229 150.99 56.9062C150.697 56.4896 150.55 55.964 150.55 55.3295V44.4773ZM157.077 58V47.0909H158.696V48.7386H158.81C159.009 48.1989 159.369 47.7609 159.89 47.4247C160.41 47.0885 160.998 46.9205 161.651 46.9205C161.774 46.9205 161.928 46.9228 162.113 46.9276C162.297 46.9323 162.437 46.9394 162.532 46.9489V48.6534C162.475 48.6392 162.345 48.6179 162.141 48.5895C161.942 48.5563 161.731 48.5398 161.509 48.5398C160.979 48.5398 160.505 48.651 160.088 48.8736C159.676 49.0914 159.35 49.3944 159.108 49.7827C158.872 50.1662 158.753 50.6042 158.753 51.0966V58H157.077ZM171.393 53.5398V47.0909H173.07V58H171.393V56.1534H171.28C171.024 56.7074 170.626 57.1785 170.087 57.5668C169.547 57.9503 168.865 58.142 168.041 58.142C167.359 58.142 166.753 57.9929 166.223 57.6946C165.693 57.3916 165.276 56.937 164.973 56.331C164.67 55.7202 164.518 54.9508 164.518 54.0227V47.0909H166.195V53.9091C166.195 54.7045 166.417 55.339 166.862 55.8125C167.312 56.286 167.885 56.5227 168.581 56.5227C168.998 56.5227 169.421 56.4162 169.852 56.2031C170.288 55.9901 170.652 55.6634 170.946 55.223C171.244 54.7827 171.393 54.2216 171.393 53.5398ZM176.14 58V47.0909H177.816V58H176.14ZM176.225 45.6136L177.958 42.3182H179.918L177.702 45.6136H176.225ZM185.005 58.2273C184.096 58.2273 183.293 57.9976 182.597 57.5384C181.901 57.0743 181.357 56.4209 180.964 55.5781C180.571 54.7306 180.374 53.7292 180.374 52.5739C180.374 51.428 180.571 50.4337 180.964 49.5909C181.357 48.7481 181.904 48.0971 182.604 47.6378C183.305 47.1785 184.115 46.9489 185.033 46.9489C185.744 46.9489 186.305 47.0672 186.717 47.304C187.133 47.536 187.451 47.8011 187.668 48.0994C187.891 48.393 188.064 48.6345 188.187 48.8239H188.329V43.4545H190.005V58H188.386V56.3239H188.187C188.064 56.5227 187.888 56.7737 187.661 57.0767C187.434 57.375 187.11 57.6425 186.688 57.8793C186.267 58.1113 185.706 58.2273 185.005 58.2273ZM185.232 56.7216C185.905 56.7216 186.473 56.5464 186.937 56.196C187.401 55.8409 187.754 55.3509 187.995 54.7259C188.237 54.0961 188.357 53.3693 188.357 52.5455C188.357 51.7311 188.239 51.0185 188.002 50.4077C187.765 49.7921 187.415 49.3139 186.951 48.973C186.487 48.6274 185.914 48.4545 185.232 48.4545C184.522 48.4545 183.93 48.6368 183.457 49.0014C182.988 49.3613 182.635 49.8513 182.398 50.4716C182.166 51.0871 182.05 51.7784 182.05 52.5455C182.05 53.322 182.169 54.0275 182.406 54.6619C182.647 55.2917 183.002 55.7936 183.471 56.1676C183.944 56.5369 184.531 56.7216 185.232 56.7216ZM197.739 58.2273C196.754 58.2273 195.89 57.9929 195.147 57.5241C194.408 57.0554 193.831 56.3996 193.414 55.5568C193.002 54.714 192.796 53.7292 192.796 52.6023C192.796 51.4659 193.002 50.474 193.414 49.6264C193.831 48.7789 194.408 48.1207 195.147 47.652C195.89 47.1832 196.754 46.9489 197.739 46.9489C198.724 46.9489 199.586 47.1832 200.325 47.652C201.068 48.1207 201.646 48.7789 202.058 49.6264C202.474 50.474 202.683 51.4659 202.683 52.6023C202.683 53.7292 202.474 54.714 202.058 55.5568C201.646 56.3996 201.068 57.0554 200.325 57.5241C199.586 57.9929 198.724 58.2273 197.739 58.2273ZM197.739 56.7216C198.487 56.7216 199.103 56.5298 199.586 56.1463C200.069 55.7628 200.426 55.2585 200.658 54.6335C200.89 54.0085 201.006 53.3314 201.006 52.6023C201.006 51.8731 200.89 51.1937 200.658 50.5639C200.426 49.9342 200.069 49.4252 199.586 49.0369C199.103 48.6487 198.487 48.4545 197.739 48.4545C196.991 48.4545 196.376 48.6487 195.893 49.0369C195.41 49.4252 195.052 49.9342 194.82 50.5639C194.588 51.1937 194.472 51.8731 194.472 52.6023C194.472 53.3314 194.588 54.0085 194.82 54.6335C195.052 55.2585 195.41 55.7628 195.893 56.1463C196.376 56.5298 196.991 56.7216 197.739 56.7216ZM212.968 49.5341L211.463 49.9602C211.368 49.7093 211.228 49.4654 211.044 49.2287C210.864 48.9872 210.618 48.7884 210.305 48.6321C209.993 48.4759 209.592 48.3977 209.105 48.3977C208.437 48.3977 207.881 48.5516 207.436 48.8594C206.995 49.1624 206.775 49.5483 206.775 50.017C206.775 50.4337 206.927 50.7628 207.23 51.0043C207.533 51.2457 208.006 51.447 208.65 51.608L210.27 52.0057C211.245 52.2424 211.972 52.6046 212.45 53.0923C212.928 53.5753 213.167 54.1979 213.167 54.9602C213.167 55.5852 212.987 56.1439 212.627 56.6364C212.272 57.1288 211.775 57.517 211.136 57.8011C210.497 58.0852 209.753 58.2273 208.906 58.2273C207.793 58.2273 206.872 57.9858 206.143 57.5028C205.414 57.0199 204.952 56.3144 204.758 55.3864L206.349 54.9886C206.501 55.5758 206.787 56.0161 207.208 56.3097C207.635 56.6032 208.191 56.75 208.877 56.75C209.659 56.75 210.279 56.5843 210.738 56.2528C211.202 55.9167 211.434 55.5142 211.434 55.0455C211.434 54.6667 211.302 54.3494 211.037 54.0938C210.771 53.8333 210.364 53.6392 209.815 53.5114L207.997 53.0852C206.998 52.8485 206.264 52.4815 205.795 51.9844C205.331 51.4825 205.099 50.8551 205.099 50.1023C205.099 49.4867 205.272 48.9422 205.618 48.4688C205.968 47.9953 206.444 47.6236 207.045 47.3537C207.651 47.0838 208.338 46.9489 209.105 46.9489C210.184 46.9489 211.032 47.1856 211.647 47.6591C212.268 48.1326 212.708 48.7576 212.968 49.5341Z" fill="black"/>
</svg>
